<svg width="24" height="24" viewBox="0 0 24 24" fill="none" xmlns="http://www.w3.org/2000/svg">
<path fill-rule="evenodd" clip-rule="evenodd" d="M12 24C18.6274 24 24 18.6274 24 12C24 5.37258 18.6274 0 12 0C5.37258 0 0 5.37258 0 12C0 18.6274 5.37258 24 12 24ZM10.4542 8.2949C10.9457 8.09803 11.4715 8.00089 12.0008 8.00915C13.0486 8.0255 14.048 8.4532 14.7831 9.19994C15.5183 9.94668 15.9304 10.9526 15.9304 12.0005C15.9304 13.0484 15.5183 14.0543 14.7831 14.801C14.048 15.5478 13.0486 15.9755 12.0008 15.9918C11.4715 16.0001 10.9457 15.9029 10.4542 15.7061C9.96274 15.5092 9.51532 15.2165 9.13804 14.845C8.76075 14.4736 8.46112 14.0308 8.2566 13.5425C8.05208 13.0541 7.94676 12.5299 7.94676 12.0005C7.94676 11.471 8.05208 10.9469 8.2566 10.4585C8.46112 9.97015 8.76075 9.52736 9.13804 9.15591C9.51532 8.78446 9.96274 8.49178 10.4542 8.2949ZM12.0008 9.40905C12.688 9.40905 13.347 9.68203 13.8329 10.1679C14.3188 10.6538 14.5918 11.3128 14.5918 12C14.5918 12.6872 14.3188 13.3462 13.8329 13.8321C13.347 14.318 12.688 14.5909 12.0008 14.5909C11.3137 14.5909 10.6547 14.318 10.1688 13.8321C9.68288 13.3462 9.4099 12.6872 9.4099 12C9.4099 11.3128 9.68288 10.6538 10.1688 10.1679C10.6547 9.68203 11.3137 9.40905 12.0008 9.40905ZM11.9999 4.22815C9.89079 4.22815 9.62557 4.23786 8.7969 4.27478C7.96823 4.31364 7.4038 4.44382 6.90931 4.63617C6.39063 4.83126 5.92082 5.13729 5.53273 5.53285C5.13741 5.92114 4.83142 6.3909 4.63605 6.90944C4.4437 7.40295 4.31255 7.96835 4.27466 8.79411C4.23774 9.62472 4.22803 9.88897 4.22803 12.001C4.22803 14.111 4.23774 14.3753 4.27466 15.2039C4.31352 16.0316 4.4437 16.5961 4.63605 17.0905C4.8352 17.6015 5.10042 18.0348 5.53273 18.4671C5.96406 18.8994 6.39734 19.1656 6.90834 19.3638C7.4038 19.5562 7.96726 19.6873 8.79496 19.7252C9.6246 19.7621 9.88884 19.7718 11.9999 19.7718C14.1109 19.7718 14.3742 19.7621 15.2038 19.7252C16.0305 19.6863 16.5969 19.5562 17.0914 19.3638C17.6097 19.1686 18.0792 18.8626 18.467 18.4671C18.8993 18.0348 19.1645 17.6015 19.3637 17.0905C19.5551 16.5961 19.6862 16.0316 19.7251 15.2039C19.762 14.3753 19.7717 14.111 19.7717 12C19.7717 9.88897 19.762 9.62472 19.7251 8.79508C19.6862 7.96835 19.5551 7.40295 19.3637 6.90944C19.1683 6.39088 18.8624 5.92112 18.467 5.53285C18.079 5.13714 17.6092 4.83109 17.0904 4.63617C16.595 4.44382 16.0296 4.31267 15.2028 4.27478C14.3732 4.23786 14.1099 4.22815 11.9979 4.22815H11.9999ZM12.0008 5.62902H11.3033V5.62708C9.85484 5.62805 9.577 5.63777 8.86005 5.6708C8.10229 5.70577 7.69135 5.83206 7.4174 5.93893C7.05406 6.07979 6.79565 6.24786 6.52364 6.51987C6.25162 6.79189 6.08258 7.05127 5.94172 7.41363C5.83486 7.68759 5.70856 8.0995 5.67359 8.85725C5.63667 9.67621 5.6289 9.92103 5.6289 11.9961C5.6289 14.0722 5.63667 14.3179 5.67359 15.1369C5.70759 15.8947 5.83486 16.3066 5.94075 16.5796C6.0658 16.9173 6.26498 17.2227 6.52364 17.4733C6.7744 17.7313 7.07981 17.9298 7.4174 18.0543C7.69135 18.1611 8.10229 18.2874 8.86005 18.3224C9.679 18.3593 9.92576 18.368 12.0008 18.368C14.0759 18.368 14.3217 18.3593 15.1407 18.3224C15.8994 18.2874 16.3113 18.1611 16.5833 18.0543C16.9466 17.9134 17.2051 17.7453 17.4771 17.4733C17.7355 17.2231 17.9344 16.918 18.059 16.5805C18.1649 16.3066 18.2921 15.8956 18.3262 15.1379C18.364 14.3189 18.3718 14.0722 18.3718 11.998C18.3718 9.92394 18.364 9.67815 18.3262 8.8592C18.2921 8.10144 18.1659 7.68953 18.059 7.41655C17.9181 7.05321 17.7501 6.7948 17.478 6.52279C17.206 6.25077 16.9466 6.08173 16.5843 5.94087C16.3103 5.83498 15.8984 5.70771 15.1407 5.67371C14.3217 5.63582 14.0759 5.62902 12.0008 5.62902ZM15.7922 6.99014C15.9053 6.94327 16.0266 6.91915 16.1491 6.91915C16.3964 6.91915 16.6336 7.01741 16.8085 7.19231C16.9834 7.36721 17.0817 7.60442 17.0817 7.85177C17.0817 8.09912 16.9834 8.33633 16.8085 8.51123C16.6336 8.68613 16.3964 8.78439 16.1491 8.78439C16.0266 8.78439 15.9053 8.76027 15.7922 8.7134C15.679 8.66653 15.5762 8.59784 15.4896 8.51123C15.403 8.42463 15.3343 8.32182 15.2874 8.20867C15.2406 8.09552 15.2164 7.97424 15.2164 7.85177C15.2164 7.7293 15.2406 7.60802 15.2874 7.49487C15.3343 7.38172 15.403 7.27891 15.4896 7.19231C15.5762 7.10571 15.679 7.03701 15.7922 6.99014Z" fill="#313131"/>
</svg>
