<svg width="25" height="25" viewBox="0 0 25 25" fill="none" xmlns="http://www.w3.org/2000/svg">
<path fill-rule="evenodd" clip-rule="evenodd" d="M12.2563 24.5044C18.8838 24.5044 24.2563 19.1318 24.2563 12.5044C24.2563 5.87698 18.8838 0.504395 12.2563 0.504395C5.62893 0.504395 0.256348 5.87698 0.256348 12.5044C0.256348 19.1318 5.62893 24.5044 12.2563 24.5044ZM12.2563 12.5514L6.22027 8.32613C6.32234 7.99282 6.63442 7.74756 6.99932 7.74756H17.5134C17.8783 7.74756 18.1903 7.99282 18.2924 8.32613L12.2563 12.5514ZM12.5431 13.5713L18.3276 9.52214V16.4474C18.3276 16.8941 17.9601 17.2616 17.5134 17.2616H6.99932C6.55262 17.2616 6.18506 16.8941 6.18506 16.4474V9.52214L11.9696 13.5713C12.1418 13.6918 12.3709 13.6918 12.5431 13.5713ZM6.99932 6.74756C6.00033 6.74756 5.18506 7.56283 5.18506 8.56182V16.4474C5.18506 17.4463 6.00033 18.2616 6.99932 18.2616H17.5134C18.5124 18.2616 19.3276 17.4463 19.3276 16.4474V8.56182C19.3276 7.56283 18.5124 6.74756 17.5134 6.74756H6.99932Z" fill="#313131"/>
</svg>
